<?xml version="1.0" standalone="no"?>
<!DOCTYPE svg PUBLIC "-//W3C//DTD SVG 20010904//EN"
 "http://www.w3.org/TR/2001/REC-SVG-20010904/DTD/svg10.dtd">
<svg version="1.0" xmlns="http://www.w3.org/2000/svg"
 width="3033.000000pt" height="1025.000000pt" viewBox="0 0 3033.000000 1025.000000"
 preserveAspectRatio="xMidYMid meet">
<metadata>
Created by potrace 1.16, written by Peter Selinger 2001-2019
</metadata>
<g transform="translate(0.000000,1025.000000) scale(0.100000,-0.100000)"
fill="#000000" stroke="none">
<path d="M19655 9788 c-92 -33 -140 -110 -133 -214 7 -116 70 -176 229 -215
102 -25 139 -54 139 -109 0 -48 -23 -77 -71 -90 -70 -19 -174 11 -252 72 -34
28 -42 19 -52 -61 -6 -50 -5 -57 15 -73 69 -56 278 -81 373 -44 117 44 163
192 100 317 -37 72 -96 112 -204 135 -96 21 -139 50 -139 96 0 42 15 64 51 77
67 23 150 7 203 -40 53 -46 59 -41 71 54 l7 57 -48 22 c-39 17 -71 23 -154 25
-59 1 -118 -2 -135 -9z"/>
<path d="M20362 9785 c-138 -43 -211 -171 -212 -367 0 -258 112 -381 350 -382
167 0 271 62 321 189 20 52 23 78 23 190 0 112 -3 138 -23 190 -31 80 -106
154 -180 178 -65 21 -216 22 -279 2z m245 -103 c17 -12 42 -43 55 -70 21 -42
23 -60 23 -187 0 -133 -1 -143 -28 -197 -36 -74 -78 -101 -157 -101 -80 0
-124 29 -159 102 -24 52 -26 66 -26 196 0 129 2 144 25 190 14 28 40 60 60 73
30 20 45 23 105 20 53 -2 78 -9 102 -26z"/>
<path d="M25062 9785 c-138 -43 -211 -171 -212 -367 0 -258 112 -381 350 -382
167 0 271 62 321 189 20 52 23 78 23 190 0 112 -3 138 -23 190 -31 80 -106
154 -180 178 -65 21 -216 22 -279 2z m245 -103 c17 -12 42 -43 55 -70 21 -42
23 -60 23 -187 0 -133 -1 -143 -28 -197 -36 -74 -78 -101 -157 -101 -80 0
-124 29 -159 102 -24 52 -26 66 -26 196 0 129 2 144 25 190 14 28 40 60 60 73
30 20 45 23 105 20 53 -2 78 -9 102 -26z"/>
<path d="M22037 9779 c-53 -13 -128 -52 -159 -86 -15 -15 -39 -55 -55 -88 -26
-55 -28 -69 -28 -180 0 -90 5 -133 18 -172 24 -70 93 -144 157 -172 106 -46
290 -45 385 1 l47 23 -4 52 c-3 29 -8 56 -11 60 -4 3 -35 -8 -68 -25 -54 -28
-72 -32 -138 -32 -161 1 -231 80 -231 260 0 173 77 260 226 260 49 0 123 -27
156 -57 9 -8 21 -12 26 -9 13 8 35 127 25 136 -35 34 -249 52 -346 29z"/>
<path d="M21012 9768 c-9 -9 -12 -99 -12 -344 0 -183 3 -339 6 -348 9 -23 139
-23 148 0 3 9 6 81 6 160 l0 144 160 0 159 0 3 -157 3 -158 69 -3 c49 -2 72 1
77 10 14 22 11 682 -3 696 -7 7 -37 12 -68 12 -31 0 -61 -5 -68 -12 -8 -8 -12
-55 -12 -145 l0 -133 -160 0 -160 0 0 133 c0 90 -4 137 -12 145 -7 7 -37 12
-68 12 -31 0 -61 -5 -68 -12z"/>
<path d="M22736 9758 c-25 -40 -239 -667 -232 -683 4 -13 19 -15 68 -13 l63 3
22 55 c12 30 24 63 26 73 5 15 20 17 145 17 l141 0 20 -57 c33 -90 30 -88 108
-91 56 -2 72 0 76 12 4 9 -45 163 -108 343 -63 179 -115 328 -115 329 0 1 -7
10 -16 18 -12 12 -36 16 -99 16 -77 0 -86 -2 -99 -22z m148 -296 c25 -74 46
-138 46 -143 0 -5 -45 -9 -100 -9 -55 0 -100 3 -100 7 0 22 95 291 101 285 4
-4 28 -67 53 -140z"/>
<path d="M23312 9768 c-9 -9 -12 -99 -12 -344 0 -183 3 -339 6 -348 9 -23 139
-23 148 0 3 9 6 81 6 160 l0 144 160 0 159 0 3 -157 3 -158 69 -3 c49 -2 72 1
77 10 14 22 11 682 -3 696 -7 7 -37 12 -68 12 -31 0 -61 -5 -68 -12 -8 -8 -12
-55 -12 -145 l0 -133 -160 0 -160 0 0 133 c0 90 -4 137 -12 145 -7 7 -37 12
-68 12 -31 0 -61 -5 -68 -12z"/>
<path d="M25856 9758 c-25 -40 -239 -667 -232 -683 4 -13 19 -15 68 -13 l63 3
22 55 c12 30 24 63 26 73 5 15 20 17 145 17 l141 0 20 -57 c33 -90 30 -88 108
-91 56 -2 72 0 76 12 4 9 -45 163 -108 343 -63 179 -115 328 -115 329 0 1 -7
10 -16 18 -12 12 -36 16 -99 16 -77 0 -86 -2 -99 -22z m148 -296 c25 -74 46
-138 46 -143 0 -5 -45 -9 -100 -9 -55 0 -100 3 -100 7 0 22 95 291 101 285 4
-4 28 -67 53 -140z"/>
<path d="M24074 9756 c-3 -8 -4 -31 -2 -52 l3 -39 127 -3 128 -3 2 -297 3
-297 69 -3 c49 -2 72 1 77 10 5 7 9 142 9 301 l0 287 118 0 c128 0 142 5 142
51 0 62 19 59 -341 59 -273 0 -331 -2 -335 -14z"/>
<path d="M14044 9360 c-7220 -4166 -13588 -7848 -13592 -7857 -3 -10 1420 -13
7092 -13 l7096 0 0 4105 c0 2258 -1 4105 -3 4105 -2 0 -268 -153 -593 -340z
m576 -3475 l0 -3775 -295 0 -295 0 0 -300 0 -300 -5010 0 -5010 0 0 104 c0 57
-7 168 -15 247 -49 459 -163 846 -377 1272 -54 108 -67 142 -56 148 161 96
11045 6378 11051 6379 4 0 7 -1699 7 -3775z m-11013 -2797 c236 -475 344 -895
379 -1470 l6 -108 -1748 0 c-1520 1 -1746 3 -1724 15 14 8 693 401 1510 873
817 472 1488 857 1491 856 3 -2 42 -76 86 -166z m11013 -1288 l0 -280 -285 0
-285 0 0 280 0 280 285 0 285 0 0 -280z"/>
<path d="M2208 2220 c-153 -46 -254 -251 -188 -381 33 -63 70 -81 161 -76 64
3 86 9 135 37 34 19 60 28 62 22 2 -6 12 -22 23 -36 40 -50 149 -23 149 37 0
25 -24 21 -35 -5 -15 -34 -53 -36 -65 -3 -18 49 -11 83 29 143 67 97 111 222
79 222 -9 0 -20 -18 -27 -42 -7 -24 -29 -74 -49 -113 l-37 -70 -5 75 c-7 99
-32 148 -90 178 -45 22 -94 27 -142 12z m103 -30 c40 -22 53 -67 53 -200 l1
-125 -54 -32 c-140 -84 -237 -54 -234 71 2 66 35 172 68 216 47 64 119 94 166
70z"/>
<path d="M24562 8215 c-138 -43 -211 -171 -212 -367 0 -258 112 -381 350 -382
167 0 271 62 321 189 20 52 23 78 23 190 0 112 -3 138 -23 190 -31 80 -106
154 -180 178 -65 21 -216 22 -279 2z m245 -103 c17 -12 42 -43 55 -70 21 -42
23 -60 23 -187 0 -133 -1 -143 -28 -197 -36 -74 -78 -101 -157 -101 -80 0
-124 29 -159 102 -24 52 -26 66 -26 196 0 129 2 144 25 190 14 28 40 60 60 73
30 20 45 23 105 20 53 -2 78 -9 102 -26z"/>
<path d="M22845 8123 c-35 -49 -65 -91 -65 -95 0 -5 15 -8 33 -8 29 0 39 8 78
60 24 32 47 59 50 60 3 0 27 -27 53 -60 42 -53 51 -60 82 -60 41 0 43 -6 -40
108 -54 74 -62 82 -93 82 -30 0 -39 -8 -98 -87z"/>
<path d="M23745 8118 l-65 -93 36 -3 c23 -2 40 2 47 12 7 8 40 51 75 95 l63
81 -45 0 -45 0 -66 -92z"/>
<path d="M27205 8118 l-65 -93 36 -3 c23 -2 40 2 47 12 7 8 40 51 75 95 l63
81 -45 0 -45 0 -66 -92z"/>
<path d="M23290 8000 l0 -60 -45 0 c-45 0 -45 0 -45 -35 0 -34 1 -35 39 -35
l39 0 4 -164 c3 -149 5 -167 24 -193 20 -26 27 -28 85 -27 83 1 128 23 121 59
-6 34 -16 38 -51 20 -40 -20 -68 -19 -81 4 -5 11 -10 83 -10 160 l0 141 65 0
65 0 0 35 0 35 -65 0 -65 0 0 60 0 60 -40 0 -40 0 0 -60z"/>
<path d="M15168 7966 c-63 -17 -94 -39 -118 -86 -39 -77 -17 -168 55 -228 93
-76 263 -66 342 19 55 61 69 164 32 250 -20 47 -23 49 -60 49 -22 0 -39 -2
-39 -5 0 -2 10 -23 22 -46 49 -95 28 -182 -55 -219 -79 -36 -77 -39 -77 130
l0 150 -27 -1 c-16 0 -49 -6 -75 -13z m32 -171 c0 -71 -4 -105 -11 -105 -6 0
-29 17 -50 39 -41 40 -49 74 -28 112 10 19 65 59 82 59 4 0 7 -47 7 -105z"/>
<path d="M22424 7925 c-63 -31 -100 -82 -116 -156 -23 -111 22 -219 112 -267
37 -19 56 -23 110 -20 38 2 82 12 105 23 36 18 40 23 37 54 -1 19 -4 36 -5 38
-2 1 -22 -7 -45 -18 -129 -64 -232 -5 -232 133 0 62 23 113 63 142 36 26 118
27 166 2 37 -20 51 -12 51 31 0 32 -51 55 -130 60 -55 4 -73 1 -116 -22z"/>
<path d="M22849 7927 c-144 -76 -168 -287 -45 -394 133 -118 334 -31 353 151
19 185 -156 323 -308 243z m150 -65 c48 -26 71 -74 71 -145 0 -91 -45 -155
-117 -163 -84 -11 -151 77 -140 185 7 63 29 99 78 123 43 23 66 23 108 0z"/>
<path d="M23688 7930 c-46 -25 -92 -80 -107 -129 -27 -92 0 -212 60 -268 61
-55 164 -69 250 -32 47 20 49 23 49 60 0 22 -2 39 -5 39 -2 0 -23 -10 -46 -22
-95 -49 -182 -28 -219 55 -36 79 -40 77 131 77 l152 0 -7 53 c-10 77 -43 138
-91 164 -50 28 -117 29 -167 3z m130 -66 c19 -13 52 -63 52 -79 0 -3 -47 -5
-105 -5 -71 0 -105 4 -105 11 0 6 17 29 39 50 43 43 80 50 119 23z"/>
<path d="M25367 7939 c-21 -5 -51 -16 -67 -24 -29 -15 -30 -14 -30 5 0 17 -6
20 -45 20 l-45 0 0 -330 0 -330 45 0 45 0 0 120 0 120 42 -21 c57 -29 133 -23
181 14 126 96 107 366 -30 423 -36 16 -42 16 -96 3z m52 -84 c37 -19 71 -89
71 -146 0 -117 -121 -202 -194 -134 -25 23 -26 27 -26 140 l0 115 33 20 c38
24 78 25 116 5z"/>
<path d="M25867 7939 c-21 -5 -51 -16 -67 -24 -29 -15 -30 -14 -30 5 0 17 -6
20 -45 20 l-45 0 0 -330 0 -330 45 0 45 0 0 120 0 120 42 -21 c57 -29 133 -23
181 14 126 96 107 366 -30 423 -36 16 -42 16 -96 3z m52 -84 c37 -19 71 -89
71 -146 0 -117 -121 -202 -194 -134 -25 23 -26 27 -26 140 l0 115 33 20 c38
24 78 25 116 5z"/>
<path d="M26289 7927 c-144 -76 -168 -287 -45 -394 133 -118 334 -31 353 151
19 185 -156 323 -308 243z m150 -65 c48 -26 71 -74 71 -145 0 -91 -45 -155
-117 -163 -84 -11 -151 77 -140 185 7 63 29 99 78 123 43 23 66 23 108 0z"/>
<path d="M26734 7940 c-50 -16 -77 -53 -82 -115 -4 -52 -3 -56 30 -89 24 -24
53 -39 94 -50 94 -26 109 -36 109 -76 0 -26 -6 -37 -25 -48 -33 -17 -111 -9
-163 17 -23 11 -42 19 -43 18 0 -1 -4 -18 -7 -38 -5 -34 -3 -37 31 -54 47 -22
158 -31 204 -16 57 19 81 52 86 121 4 59 4 61 -34 99 -31 31 -51 41 -99 51
-75 15 -105 33 -105 65 0 52 74 69 164 39 26 -9 48 -15 50 -13 2 2 6 18 9 35
5 27 2 33 -21 44 -34 16 -158 22 -198 10z"/>
<path d="M27148 7930 c-46 -25 -92 -80 -107 -129 -27 -92 0 -212 60 -268 61
-55 164 -69 250 -32 47 20 49 23 49 60 0 22 -2 39 -5 39 -2 0 -23 -10 -46 -22
-95 -49 -182 -28 -219 55 -36 79 -40 77 131 77 l152 0 -7 53 c-10 77 -43 138
-91 164 -50 28 -117 29 -167 3z m130 -66 c19 -13 52 -63 52 -79 0 -3 -47 -5
-105 -5 -71 0 -105 4 -105 11 0 6 17 29 39 50 43 43 80 50 119 23z"/>
<path d="M14770 7886 l0 -45 93 -66 92 -65 3 36 c2 23 -2 40 -12 47 -8 7 -51
40 -95 75 l-81 63 0 -45z"/>
<path d="M19596 7522 c-51 -64 -93 -148 -118 -241 -30 -112 -30 -353 1 -466
26 -98 60 -170 112 -235 36 -45 43 -50 80 -50 l40 0 -34 43 c-86 105 -126 235
-134 427 -9 218 31 387 121 508 20 28 36 52 36 56 0 3 -15 6 -32 6 -27 0 -40
-9 -72 -48z"/>
<path d="M20460 7564 c0 -4 14 -22 30 -41 95 -108 150 -325 136 -540 -11 -172
-54 -305 -132 -407 l-35 -46 39 0 c36 0 43 5 81 53 99 130 136 272 128 501 -7
211 -44 329 -138 439 -34 39 -46 47 -75 47 -19 0 -34 -3 -34 -6z"/>
<path d="M15271 7514 c-31 -31 -41 -51 -51 -99 -15 -75 -33 -105 -65 -105 -52
0 -69 74 -39 164 9 26 15 48 13 50 -2 2 -18 6 -35 9 -27 5 -33 2 -44 -21 -18
-39 -24 -140 -11 -188 16 -60 50 -86 116 -92 52 -4 56 -3 89 30 24 24 39 53
50 94 26 94 36 109 76 109 26 0 37 -6 48 -25 17 -33 9 -111 -17 -163 -11 -23
-19 -42 -18 -43 1 0 18 -4 38 -7 34 -5 37 -3 54 31 22 47 31 158 16 204 -19
57 -52 81 -121 86 -59 4 -61 4 -99 -34z"/>
<path d="M9170 7474 c-75 -33 -110 -92 -110 -187 0 -122 79 -223 192 -246 92
-19 173 17 230 101 27 39 27 41 11 69 -21 35 -29 36 -44 7 -6 -13 -23 -36 -38
-51 -69 -75 -152 -76 -221 -2 -30 32 -37 26 121 116 60 34 109 65 109 69 0 21
-75 101 -113 119 -51 25 -89 26 -137 5z m126 -87 l27 -23 -89 -51 c-97 -55
-111 -54 -98 12 14 78 101 112 160 62z"/>
<path d="M18720 7415 l0 -45 45 0 45 0 0 45 0 45 -45 0 -45 0 0 -45z"/>
<path d="M8843 7281 c-93 -32 -153 -95 -153 -162 0 -32 39 -95 67 -108 35 -16
108 -13 170 6 39 12 59 14 70 7 74 -46 20 -122 -103 -146 -33 -6 -60 -12 -62
-13 -1 -1 3 -16 9 -34 12 -33 12 -33 60 -27 81 11 156 51 190 102 37 57 15
150 -45 189 -29 20 -112 17 -189 -5 -45 -14 -48 -13 -69 8 -18 18 -20 26 -13
49 11 30 77 68 137 77 21 3 38 8 38 10 0 1 -5 17 -11 35 -13 36 -24 37 -96 12z"/>
<path d="M18331 7262 c-51 -25 -73 -61 -74 -118 -1 -96 44 -141 167 -169 80
-18 96 -28 96 -60 0 -66 -120 -69 -194 -5 -49 43 -63 39 -71 -20 -5 -34 -3
-55 5 -65 20 -24 109 -47 184 -47 130 0 186 45 186 152 0 97 -50 148 -169 171
-71 14 -102 36 -94 68 11 43 120 41 181 -3 34 -24 38 -25 50 -9 6 9 12 33 12
54 0 34 -3 38 -40 53 -57 23 -194 22 -239 -2z"/>
<path d="M19120 7238 c-19 -5 -42 -16 -51 -24 -21 -19 -29 -18 -29 6 0 17 -7
20 -45 20 l-45 0 0 -225 0 -225 45 0 45 0 0 145 c0 193 18 237 97 237 28 0 43
-7 60 -27 22 -25 23 -34 23 -191 l0 -164 46 0 46 0 -4 183 c-4 191 -11 224
-52 251 -30 19 -95 26 -136 14z"/>
<path d="M20008 7240 c-153 -46 -254 -251 -188 -381 33 -63 70 -81 161 -76 64
3 86 9 135 37 34 19 60 28 62 22 2 -6 12 -22 23 -36 40 -50 149 -23 149 37 0
25 -24 21 -35 -5 -15 -34 -53 -36 -65 -3 -18 49 -11 83 29 143 67 97 111 222
79 222 -9 0 -20 -18 -27 -42 -7 -24 -29 -74 -49 -113 l-37 -70 -5 75 c-7 99
-32 148 -90 178 -45 22 -94 27 -142 12z m103 -30 c40 -22 53 -67 53 -200 l1
-125 -54 -32 c-140 -84 -237 -54 -234 71 2 66 35 172 68 216 47 64 119 94 166
70z"/>
<path d="M18720 7015 l0 -225 45 0 45 0 0 225 0 225 -45 0 -45 0 0 -225z"/>
<path d="M15181 7167 c-50 -19 -111 -75 -132 -121 -85 -188 137 -373 332 -275
151 76 159 289 13 375 -54 32 -158 42 -213 21z m167 -91 c106 -55 105 -178 -1
-226 -106 -49 -224 -2 -243 95 -8 46 21 102 66 127 42 22 139 24 178 4z"/>
<path d="M21120 7140 c0 -20 7 -20 325 -20 318 0 325 0 325 20 0 20 -7 20
-325 20 -318 0 -325 0 -325 -20z"/>
<path d="M8522 7089 l-32 -21 32 -57 c17 -31 52 -90 76 -131 24 -41 47 -92 49
-112 5 -31 1 -42 -24 -67 -31 -31 -73 -47 -96 -38 -8 3 -54 75 -103 160 l-89
155 -37 -19 c-21 -11 -38 -22 -38 -25 0 -16 185 -323 206 -341 30 -27 63 -29
110 -7 39 19 114 99 114 123 1 12 3 12 12 -4 6 -11 12 -21 14 -23 2 -3 63 25
73 34 5 4 -220 394 -228 394 -3 0 -21 -10 -39 -21z"/>
<path d="M22160 7055 l0 -25 2690 0 2690 0 0 25 0 25 -2690 0 -2690 0 0 -25z"/>
<path d="M21123 6964 c-3 -9 0 -20 8 -25 8 -5 154 -8 324 -6 303 2 310 2 310
22 0 20 -8 20 -318 23 -285 2 -318 1 -324 -14z"/>
<path d="M7517 6832 c-34 -21 -34 -23 -43 -150 l-7 -103 31 18 c28 16 31 24
42 98 6 44 14 97 17 118 6 41 1 43 -40 19z"/>
<path d="M8015 6801 c-36 -22 -57 -45 -77 -85 -15 -29 -15 -29 -27 -8 -12 23
-22 22 -65 -10 -17 -14 -12 -25 95 -210 l113 -197 25 14 c56 30 56 25 -15 146
-107 183 -113 232 -31 273 38 18 39 18 65 -1 15 -11 61 -79 104 -152 42 -73
78 -135 81 -138 4 -4 63 21 75 33 9 7 -156 283 -189 317 -31 32 -43 37 -80 37
-25 0 -57 -8 -74 -19z"/>
<path d="M22272 6798 c-9 -9 -12 -99 -12 -344 0 -183 3 -339 6 -348 9 -23 139
-23 148 0 3 9 6 81 6 160 l0 144 160 0 159 0 3 -157 3 -158 69 -3 c49 -2 72 1
77 10 14 22 11 682 -3 696 -7 7 -37 12 -68 12 -31 0 -61 -5 -68 -12 -8 -8 -12
-55 -12 -145 l0 -133 -160 0 -160 0 0 133 c0 90 -4 137 -12 145 -7 7 -37 12
-68 12 -31 0 -61 -5 -68 -12z"/>
<path d="M24870 6450 l0 -360 45 0 45 0 0 145 c0 193 18 237 97 237 28 0 43
-7 60 -27 22 -25 23 -34 23 -191 l0 -164 46 0 46 0 -4 183 c-4 226 -14 250
-110 271 -34 8 -113 -11 -129 -30 -6 -8 -15 -14 -20 -14 -5 0 -9 70 -9 155 l0
155 -45 0 -45 0 0 -360z"/>
<path d="M25505 6718 l-65 -93 36 -3 c23 -2 40 2 47 12 7 8 40 51 75 95 l63
81 -45 0 -45 0 -66 -92z"/>
<path d="M15162 6642 c-62 -22 -107 -62 -122 -107 -12 -36 0 -106 26 -156 14
-27 13 -29 -6 -29 -17 0 -20 -6 -20 -45 l0 -45 330 0 330 0 0 45 0 45 -120 0
-120 0 21 42 c29 57 23 133 -14 181 -57 75 -198 107 -305 69z m188 -91 c75
-39 102 -124 55 -175 -23 -25 -27 -26 -140 -26 l-115 0 -20 33 c-39 63 -18
131 52 166 53 26 122 27 168 2z"/>
<path d="M24550 6600 l0 -60 -45 0 c-45 0 -45 0 -45 -35 0 -34 1 -35 39 -35
l39 0 4 -164 c3 -149 5 -167 24 -193 20 -26 27 -28 85 -27 83 1 128 23 121 59
-6 34 -16 38 -51 20 -40 -20 -68 -19 -81 4 -5 11 -10 83 -10 160 l0 141 65 0
65 0 0 35 0 35 -65 0 -65 0 0 60 0 60 -40 0 -40 0 0 -60z"/>
<path d="M7600 6574 c-75 -33 -110 -92 -110 -187 0 -122 79 -223 192 -246 92
-19 173 17 230 101 27 39 27 41 11 69 -21 35 -29 36 -44 7 -6 -13 -23 -36 -38
-51 -69 -75 -152 -76 -221 -2 -30 32 -37 26 121 116 60 34 109 65 109 69 0 21
-75 101 -113 119 -51 25 -89 26 -137 5z m126 -87 l27 -23 -89 -51 c-97 -55
-111 -54 -98 12 14 78 101 112 160 62z"/>
<path d="M23687 6539 c-21 -5 -51 -16 -67 -24 -29 -15 -30 -14 -30 5 0 17 -6
20 -45 20 l-45 0 0 -330 0 -330 45 0 45 0 0 120 0 120 42 -21 c57 -29 133 -23
181 14 126 96 107 366 -30 423 -36 16 -42 16 -96 3z m52 -84 c37 -19 71 -89
71 -146 0 -117 -121 -202 -194 -134 -25 23 -26 27 -26 140 l0 115 33 20 c38
24 78 25 116 5z"/>
<path d="M24109 6527 c-144 -76 -168 -287 -45 -394 133 -118 334 -31 353 151
19 185 -156 323 -308 243z m150 -65 c48 -26 71 -74 71 -145 0 -91 -45 -155
-117 -163 -84 -11 -151 77 -140 185 7 63 29 99 78 123 43 23 66 23 108 0z"/>
<path d="M25448 6530 c-46 -25 -92 -80 -107 -129 -27 -92 0 -212 60 -268 61
-55 164 -69 250 -32 47 20 49 23 49 60 0 22 -2 39 -5 39 -2 0 -23 -10 -46 -22
-95 -49 -182 -28 -219 55 -36 79 -40 77 131 77 l152 0 -7 53 c-10 77 -43 138
-91 164 -50 28 -117 29 -167 3z m130 -66 c19 -13 52 -63 52 -79 0 -3 -47 -5
-105 -5 -71 0 -105 4 -105 11 0 6 17 29 39 50 43 43 80 50 119 23z"/>
<path d="M25970 6538 c-19 -5 -42 -16 -51 -24 -21 -19 -29 -18 -29 6 0 17 -7
20 -45 20 l-45 0 0 -225 0 -225 45 0 45 0 0 145 c0 193 18 237 97 237 28 0 43
-7 60 -27 22 -25 23 -34 23 -191 l0 -164 46 0 46 0 -4 183 c-4 191 -11 224
-52 251 -30 19 -95 26 -136 14z"/>
<path d="M26844 6540 c-50 -16 -77 -53 -82 -115 -4 -52 -3 -56 30 -89 24 -24
53 -39 94 -50 94 -26 109 -36 109 -76 0 -26 -6 -37 -25 -48 -33 -17 -111 -9
-163 17 -23 11 -42 19 -43 18 0 -1 -4 -18 -7 -38 -5 -34 -3 -37 31 -54 47 -22
158 -31 204 -16 57 19 81 52 86 121 4 59 4 61 -34 99 -31 31 -51 41 -99 51
-75 15 -105 33 -105 65 0 52 74 69 164 39 26 -9 48 -15 50 -13 2 2 6 18 9 35
5 27 2 33 -21 44 -34 16 -158 22 -198 10z"/>
<path d="M27248 6530 c-46 -25 -92 -80 -107 -129 -27 -92 0 -212 60 -268 61
-55 164 -69 250 -32 47 20 49 23 49 60 0 22 -2 39 -5 39 -2 0 -23 -10 -46 -22
-95 -49 -182 -28 -219 55 -36 79 -40 77 131 77 l152 0 -7 53 c-10 77 -43 138
-91 164 -50 28 -117 29 -167 3z m130 -66 c19 -13 52 -63 52 -79 0 -3 -47 -5
-105 -5 -71 0 -105 4 -105 11 0 6 17 29 39 50 43 43 80 50 119 23z"/>
<path d="M23000 6535 c0 -3 41 -105 91 -227 l91 -222 -29 -65 -29 -66 -52 1
c-48 2 -52 0 -52 -21 0 -48 9 -55 69 -55 50 0 61 4 83 28 36 38 37 41 142 324
52 139 99 266 105 281 l11 28 -47 -3 -47 -3 -47 -130 c-26 -71 -51 -147 -54
-167 -7 -38 -25 -53 -25 -20 0 9 -27 85 -59 167 l-58 150 -46 3 c-26 2 -47 0
-47 -3z"/>
<path d="M26302 6334 l3 -206 29 -25 c27 -23 36 -25 97 -21 44 4 80 13 103 26
35 21 36 21 36 2 0 -17 7 -20 45 -20 l45 0 0 225 0 225 -44 0 -45 0 -3 -171
-3 -171 -28 -24 c-21 -18 -40 -24 -76 -24 -26 0 -52 5 -59 12 -8 8 -12 66 -12
195 l0 183 -46 0 -45 0 3 -206z"/>
<path d="M6913 6479 l-31 -20 105 -182 c58 -100 139 -241 181 -314 l76 -132
25 14 c56 30 56 25 -15 146 -107 183 -113 232 -31 273 38 18 39 18 65 -1 15
-11 61 -79 104 -152 42 -73 78 -135 81 -138 4 -4 63 21 75 33 9 7 -156 283
-189 317 -31 31 -43 37 -78 37 -65 0 -119 -36 -153 -102 l-13 -28 -78 135
c-43 74 -81 135 -85 135 -4 0 -21 -9 -39 -21z"/>
<path d="M6701 6181 l-24 -18 26 -48 c15 -26 27 -51 27 -56 0 -5 -13 -15 -30
-24 -35 -18 -36 -25 -12 -55 19 -23 19 -23 50 -5 17 11 33 17 35 14 2 -2 34
-58 72 -124 83 -145 111 -175 158 -175 26 0 46 10 81 41 66 58 74 77 45 100
-31 24 -32 24 -52 -11 -20 -34 -60 -48 -82 -30 -14 12 -145 231 -145 243 0 3
24 20 54 38 54 33 55 33 40 61 -8 15 -17 28 -21 28 -3 0 -30 -14 -59 -31 l-53
-30 -32 50 c-34 56 -42 59 -78 32z"/>
<path d="M15162 6142 c-62 -22 -107 -62 -122 -107 -12 -36 0 -106 26 -156 14
-27 13 -29 -6 -29 -17 0 -20 -6 -20 -45 l0 -45 330 0 330 0 0 45 0 45 -120 0
-120 0 21 42 c29 57 23 133 -14 181 -57 75 -198 107 -305 69z m188 -91 c75
-39 102 -124 55 -175 -23 -25 -27 -26 -140 -26 l-115 0 -20 33 c-39 63 -18
131 52 166 53 26 122 27 168 2z"/>
<path d="M6479 5916 c-95 -34 -139 -100 -139 -207 1 -159 132 -272 277 -239
222 49 214 378 -11 445 -60 18 -80 18 -127 1z m132 -89 c39 -25 89 -116 89
-160 0 -43 -29 -96 -61 -112 -81 -42 -172 9 -215 120 -14 38 -15 52 -5 85 25
84 118 117 192 67z"/>
<path d="M22665 5773 c-35 -49 -65 -91 -65 -95 0 -5 15 -8 33 -8 29 0 39 8 78
60 24 32 47 59 50 60 3 0 27 -27 53 -60 42 -53 51 -60 82 -60 41 0 43 -6 -40
108 -54 74 -62 82 -93 82 -30 0 -39 -8 -98 -87z"/>
<path d="M23565 5768 l-65 -93 36 -3 c23 -2 40 2 47 12 7 8 40 51 75 95 l63
81 -45 0 -45 0 -66 -92z"/>
<path d="M24386 5838 c-25 -40 -239 -667 -232 -683 4 -13 19 -15 68 -13 l63 3
22 55 c12 30 24 63 26 73 5 15 20 17 145 17 l141 0 20 -57 c33 -90 30 -88 108
-91 56 -2 72 0 76 12 4 9 -45 163 -108 343 -63 179 -115 328 -115 329 0 1 -7
10 -16 18 -12 12 -36 16 -99 16 -77 0 -86 -2 -99 -22z m148 -296 c25 -74 46
-138 46 -143 0 -5 -45 -9 -100 -9 -55 0 -100 3 -100 7 0 22 95 291 101 285 4
-4 28 -67 53 -140z"/>
<path d="M25210 5705 l0 -155 -22 14 c-13 8 -44 20 -71 27 -128 32 -230 -92
-214 -261 6 -71 45 -146 90 -177 45 -31 109 -30 170 1 44 22 47 22 47 5 0 -16
8 -19 45 -19 l45 0 0 360 0 360 -45 0 -45 0 0 -155z m-30 -204 c23 -17 25 -24
28 -117 4 -123 -1 -140 -41 -164 -41 -25 -73 -25 -115 0 -41 25 -62 73 -62
140 0 84 34 141 96 160 35 10 60 5 94 -19z"/>
<path d="M25460 5765 l0 -45 45 0 45 0 0 45 0 45 -45 0 -45 0 0 -45z"/>
<path d="M23110 5650 l0 -60 -45 0 c-45 0 -45 0 -45 -35 0 -34 1 -35 39 -35
l39 0 4 -164 c3 -149 5 -167 24 -193 20 -26 27 -28 85 -27 83 1 128 23 121 59
-6 34 -16 38 -51 20 -40 -20 -68 -19 -81 4 -5 11 -10 83 -10 160 l0 141 65 0
65 0 0 35 0 35 -65 0 -65 0 0 60 0 60 -40 0 -40 0 0 -60z"/>
<path d="M27550 5650 l0 -60 -45 0 c-45 0 -45 0 -45 -35 0 -34 1 -35 39 -35
l39 0 4 -164 c3 -149 5 -167 24 -193 20 -26 27 -28 85 -27 83 1 128 23 121 59
-6 34 -16 38 -51 20 -40 -20 -68 -19 -81 4 -5 11 -10 83 -10 160 l0 141 65 0
65 0 0 35 0 35 -65 0 -65 0 0 60 0 60 -40 0 -40 0 0 -60z"/>
<path d="M6039 5667 c-27 -14 -57 -42 -76 -70 -27 -41 -32 -45 -38 -27 -6 20
-6 20 -46 0 -21 -11 -39 -22 -39 -24 0 -5 319 -559 325 -565 4 -3 75 38 75 44
0 1 -25 45 -55 96 -30 52 -55 97 -55 102 0 4 17 7 37 7 20 0 55 9 78 20 147
71 96 341 -79 421 -54 24 -74 24 -127 -4z m117 -98 c104 -64 116 -230 20 -276
-59 -28 -83 -11 -149 104 -58 100 -58 101 -43 131 9 17 26 38 38 46 32 22 94
20 134 -5z"/>
<path d="M15181 5657 c-50 -19 -111 -75 -132 -121 -85 -188 137 -373 332 -275
151 76 159 289 13 375 -54 32 -158 42 -213 21z m167 -91 c106 -55 105 -178 -1
-226 -106 -49 -224 -2 -243 95 -8 46 21 102 66 127 42 22 139 24 178 4z"/>
<path d="M22244 5575 c-63 -31 -100 -82 -116 -156 -23 -111 22 -219 112 -267
37 -19 56 -23 110 -20 38 2 82 12 105 23 36 18 40 23 37 54 -1 19 -4 36 -5 38
-2 1 -22 -7 -45 -18 -129 -64 -232 -5 -232 133 0 62 23 113 63 142 36 26 118
27 166 2 37 -20 51 -12 51 31 0 32 -51 55 -130 60 -55 4 -73 1 -116 -22z"/>
<path d="M22669 5577 c-144 -76 -168 -287 -45 -394 133 -118 334 -31 353 151
19 185 -156 323 -308 243z m150 -65 c48 -26 71 -74 71 -145 0 -91 -45 -155
-117 -163 -84 -11 -151 77 -140 185 7 63 29 99 78 123 43 23 66 23 108 0z"/>
<path d="M23508 5580 c-46 -25 -92 -80 -107 -129 -27 -92 0 -212 60 -268 61
-55 164 -69 250 -32 47 20 49 23 49 60 0 22 -2 39 -5 39 -2 0 -23 -10 -46 -22
-95 -49 -182 -28 -219 55 -36 79 -40 77 131 77 l152 0 -7 53 c-10 77 -43 138
-91 164 -50 28 -117 29 -167 3z m130 -66 c19 -13 52 -63 52 -79 0 -3 -47 -5
-105 -5 -71 0 -105 4 -105 11 0 6 17 29 39 50 43 43 80 50 119 23z"/>
<path d="M25768 5584 c-56 -17 -62 -25 -54 -68 l6 -33 47 23 c65 33 125 32
152 -2 21 -27 38 -90 27 -101 -3 -4 -36 -10 -71 -14 -75 -9 -142 -36 -173 -70
-42 -44 -19 -149 39 -180 29 -15 135 -7 177 15 28 14 32 15 32 1 0 -11 11 -15
40 -15 l40 0 0 171 c0 158 -2 174 -22 210 -40 71 -133 96 -240 63z m182 -279
c0 -70 -35 -105 -104 -105 -42 0 -88 35 -84 63 4 28 57 58 121 67 29 4 55 8
60 9 4 0 7 -15 7 -34z"/>
<path d="M26244 5575 c-63 -31 -100 -82 -116 -156 -23 -111 22 -219 112 -267
37 -19 56 -23 110 -20 38 2 82 12 105 23 36 18 40 23 37 54 -1 19 -4 36 -5 38
-2 1 -22 -7 -45 -18 -129 -64 -232 -5 -232 133 0 62 23 113 63 142 36 26 118
27 166 2 37 -20 51 -12 51 31 0 32 -51 55 -130 60 -55 4 -73 1 -116 -22z"/>
<path d="M26668 5580 c-46 -25 -92 -80 -107 -129 -27 -92 0 -212 60 -268 61
-55 164 -69 250 -32 47 20 49 23 49 60 0 22 -2 39 -5 39 -2 0 -23 -10 -46 -22
-95 -49 -182 -28 -219 55 -36 79 -40 77 131 77 l152 0 -7 53 c-10 77 -43 138
-91 164 -50 28 -117 29 -167 3z m130 -66 c19 -13 52 -63 52 -79 0 -3 -47 -5
-105 -5 -71 0 -105 4 -105 11 0 6 17 29 39 50 43 43 80 50 119 23z"/>
<path d="M27190 5588 c-19 -5 -42 -16 -51 -24 -21 -19 -29 -18 -29 6 0 17 -7
20 -45 20 l-45 0 0 -225 0 -225 45 0 45 0 0 145 c0 193 18 237 97 237 28 0 43
-7 60 -27 22 -25 23 -34 23 -191 l0 -164 46 0 46 0 -4 183 c-4 191 -11 224
-52 251 -30 19 -95 26 -136 14z"/>
<path d="M25470 5315 c0 -262 -1 -276 -20 -295 -24 -24 -54 -25 -94 -5 -34 18
-34 18 -42 -23 -6 -29 -4 -33 29 -47 46 -19 110 -19 146 0 57 29 61 54 61 364
l0 281 -40 0 -40 0 0 -275z"/>
<path d="M5727 5472 c-26 -16 -28 -20 -22 -62 10 -67 53 -284 62 -306 4 -10
-21 7 -55 38 -34 31 -100 86 -146 123 l-84 65 -36 -21 c-20 -11 -36 -24 -36
-28 0 -3 85 -72 189 -151 l189 -145 7 -61 c10 -87 6 -97 -43 -114 -23 -8 -42
-17 -42 -20 1 -3 11 -18 24 -33 l23 -29 44 21 c56 26 71 50 71 115 1 74 -93
626 -106 626 -6 0 -24 -8 -39 -18z"/>
<path d="M4913 5319 l-31 -20 105 -182 c58 -100 139 -241 181 -314 l76 -132
25 14 c56 30 56 25 -15 146 -107 183 -113 232 -31 273 38 18 39 18 65 -1 15
-11 61 -79 104 -152 42 -73 78 -135 81 -138 4 -4 63 21 75 33 9 7 -156 283
-189 317 -31 31 -43 37 -78 37 -65 0 -119 -36 -153 -102 l-13 -28 -78 135
c-43 74 -81 135 -85 135 -4 0 -21 -9 -39 -21z"/>
<path d="M19516 5172 c-51 -64 -93 -148 -118 -241 -30 -112 -30 -353 1 -466
26 -98 60 -170 112 -235 36 -45 43 -50 80 -50 l40 0 -34 43 c-86 105 -126 235
-134 427 -9 218 31 387 121 508 20 28 36 52 36 56 0 3 -15 6 -32 6 -27 0 -40
-9 -72 -48z"/>
<path d="M20380 5214 c0 -4 14 -22 30 -41 95 -108 150 -325 136 -540 -11 -172
-54 -305 -132 -407 l-35 -46 39 0 c36 0 43 5 81 53 99 130 136 272 128 501 -7
211 -44 329 -138 439 -34 39 -46 47 -75 47 -19 0 -34 -3 -34 -6z"/>
<path d="M18110 4917 c-48 -16 -107 -77 -121 -129 -19 -69 -15 -187 8 -239 40
-87 103 -121 229 -121 68 0 93 5 140 26 49 23 56 29 50 48 -3 13 -6 35 -6 51
0 34 -7 34 -67 -2 -97 -59 -186 -45 -210 34 -15 51 -15 139 0 190 23 76 121
94 203 39 19 -13 41 -24 48 -24 14 0 32 82 22 99 -22 35 -216 53 -296 28z"/>
<path d="M18599 4877 c-144 -76 -168 -287 -45 -394 133 -118 334 -31 353 151
19 185 -156 323 -308 243z m150 -65 c48 -26 71 -74 71 -145 0 -91 -45 -155
-117 -163 -84 -11 -151 77 -140 185 7 63 29 99 78 123 43 23 66 23 108 0z"/>
<path d="M19044 4890 c-50 -16 -77 -53 -82 -115 -4 -52 -3 -56 30 -89 24 -24
53 -39 94 -50 94 -26 109 -36 109 -76 0 -26 -6 -37 -25 -48 -33 -17 -111 -9
-163 17 -23 11 -42 19 -43 18 0 -1 -4 -18 -7 -38 -5 -34 -3 -37 31 -54 47 -22
158 -31 204 -16 57 19 81 52 86 121 4 59 4 61 -34 99 -31 31 -51 41 -99 51
-75 15 -105 33 -105 65 0 52 74 69 164 39 26 -9 48 -15 50 -13 2 2 6 18 9 35
5 27 2 33 -21 44 -34 16 -158 22 -198 10z"/>
<path d="M19928 4890 c-153 -46 -254 -251 -188 -381 33 -63 70 -81 161 -76 64
3 86 9 135 37 34 19 60 28 62 22 2 -6 12 -22 23 -36 40 -50 149 -23 149 37 0
25 -24 21 -35 -5 -15 -34 -53 -36 -65 -3 -18 49 -11 83 29 143 67 97 111 222
79 222 -9 0 -20 -18 -27 -42 -7 -24 -29 -74 -49 -113 l-37 -70 -5 75 c-7 99
-32 148 -90 178 -45 22 -94 27 -142 12z m103 -30 c40 -22 53 -67 53 -200 l1
-125 -54 -32 c-140 -84 -237 -54 -234 71 2 66 35 172 68 216 47 64 119 94 166
70z"/>
<path d="M15168 4846 c-63 -17 -94 -39 -118 -86 -39 -77 -17 -168 55 -228 93
-76 263 -66 342 19 55 61 69 164 32 250 -20 47 -23 49 -60 49 -22 0 -39 -2
-39 -5 0 -2 10 -23 22 -46 49 -95 28 -182 -55 -219 -79 -36 -77 -39 -77 130
l0 150 -27 -1 c-16 0 -49 -6 -75 -13z m32 -171 c0 -71 -4 -105 -11 -105 -6 0
-29 17 -50 39 -41 40 -49 74 -28 112 10 19 65 59 82 59 4 0 7 -47 7 -105z"/>
<path d="M14770 4766 l0 -45 93 -66 92 -65 3 36 c2 23 -2 40 -12 47 -8 7 -51
40 -95 75 l-81 63 0 -45z"/>
<path d="M21050 4790 c0 -20 7 -20 325 -20 318 0 325 0 325 20 0 20 -7 20
-325 20 -318 0 -325 0 -325 -20z"/>
<path d="M22080 4705 l0 -25 2865 0 2865 0 0 25 0 25 -2865 0 -2865 0 0 -25z"/>
<path d="M21053 4614 c-3 -9 0 -20 8 -25 8 -5 154 -8 324 -6 303 2 310 2 310
22 0 20 -8 20 -318 23 -285 2 -318 1 -324 -14z"/>
<path d="M22362 4438 c-9 -9 -12 -99 -12 -344 0 -183 3 -339 6 -348 9 -23 139
-23 148 0 3 9 6 81 6 160 l0 144 160 0 159 0 3 -157 3 -158 69 -3 c49 -2 72 1
77 10 14 22 11 682 -3 696 -7 7 -37 12 -68 12 -31 0 -61 -5 -68 -12 -8 -8 -12
-55 -12 -145 l0 -133 -160 0 -160 0 0 133 c0 90 -4 137 -12 145 -16 16 -120
16 -136 0z"/>
<path d="M24960 4090 l0 -360 45 0 45 0 0 145 c0 193 18 237 97 237 28 0 43
-7 60 -27 22 -25 23 -34 23 -191 l0 -164 46 0 46 0 -4 183 c-4 226 -14 250
-110 271 -34 8 -113 -11 -129 -30 -6 -8 -15 -14 -20 -14 -5 0 -9 70 -9 155 l0
155 -45 0 -45 0 0 -360z"/>
<path d="M25595 4358 l-65 -93 36 -3 c23 -2 40 2 47 12 7 8 40 51 75 95 l63
81 -45 0 -45 0 -66 -92z"/>
<path d="M15435 4422 c-33 -7 -38 -18 -21 -50 21 -41 20 -69 -3 -82 -11 -5
-83 -10 -160 -10 l-141 0 0 65 0 65 -35 0 -35 0 0 -65 0 -65 -60 0 -60 0 0
-40 0 -40 60 0 60 0 0 -45 c0 -45 0 -45 35 -45 34 0 35 1 35 39 l0 39 164 4
c149 3 167 5 193 24 32 24 41 77 24 141 -14 50 -31 71 -56 65z"/>
<path d="M24640 4240 l0 -60 -45 0 c-45 0 -45 0 -45 -35 0 -34 1 -35 39 -35
l39 0 4 -164 c3 -149 5 -167 24 -193 20 -26 27 -28 85 -27 83 1 128 23 121 59
-6 34 -16 38 -51 20 -40 -20 -68 -19 -81 4 -5 11 -10 83 -10 160 l0 141 65 0
65 0 0 35 0 35 -65 0 -65 0 0 60 0 60 -40 0 -40 0 0 -60z"/>
<path d="M23787 4179 c-21 -5 -51 -16 -67 -24 -29 -15 -30 -14 -30 5 0 17 -6
20 -45 20 l-45 0 0 -330 0 -330 45 0 45 0 0 120 0 120 42 -21 c57 -29 133 -23
181 14 126 96 107 366 -30 423 -36 16 -42 16 -96 3z m52 -84 c37 -19 71 -89
71 -146 0 -117 -121 -202 -194 -134 -25 23 -26 27 -26 140 l0 115 33 20 c38
24 78 25 116 5z"/>
<path d="M24209 4167 c-144 -76 -168 -287 -45 -394 133 -118 334 -31 353 151
19 185 -156 323 -308 243z m150 -65 c48 -26 71 -74 71 -145 0 -91 -45 -155
-117 -163 -84 -11 -151 77 -140 185 7 63 29 99 78 123 43 23 66 23 108 0z"/>
<path d="M25538 4170 c-46 -25 -92 -80 -107 -129 -27 -92 0 -212 60 -268 61
-55 164 -69 250 -32 47 20 49 23 49 60 0 22 -2 39 -5 39 -2 0 -23 -10 -46 -22
-95 -49 -182 -28 -219 55 -36 79 -40 77 131 77 l152 0 -7 53 c-10 77 -43 138
-91 164 -50 28 -117 29 -167 3z m130 -66 c19 -13 52 -63 52 -79 0 -3 -47 -5
-105 -5 -71 0 -105 4 -105 11 0 6 17 29 39 50 43 43 80 50 119 23z"/>
<path d="M26070 4178 c-19 -5 -42 -16 -51 -24 -21 -19 -29 -18 -29 6 0 17 -7
20 -45 20 l-45 0 0 -225 0 -225 45 0 45 0 0 145 c0 193 18 237 97 237 28 0 43
-7 60 -27 22 -25 23 -34 23 -191 l0 -164 46 0 46 0 -4 183 c-4 191 -11 224
-52 251 -30 19 -95 26 -136 14z"/>
<path d="M26944 4180 c-50 -16 -77 -53 -82 -115 -4 -52 -3 -56 30 -89 24 -24
53 -39 94 -50 94 -26 109 -36 109 -76 0 -26 -6 -37 -25 -48 -33 -17 -111 -9
-163 17 -23 11 -42 19 -43 18 0 -1 -4 -18 -7 -38 -5 -34 -3 -37 31 -54 47 -22
158 -31 204 -16 57 19 81 52 86 121 4 59 4 61 -34 99 -31 31 -51 41 -99 51
-75 15 -105 33 -105 65 0 52 74 69 164 39 26 -9 48 -15 50 -13 2 2 6 18 9 35
5 27 2 33 -21 44 -34 16 -158 22 -198 10z"/>
<path d="M27348 4170 c-46 -25 -92 -80 -107 -129 -27 -92 0 -212 60 -268 61
-55 164 -69 250 -32 47 20 49 23 49 60 0 22 -2 39 -5 39 -2 0 -23 -10 -46 -22
-95 -49 -182 -28 -219 55 -36 79 -40 77 131 77 l152 0 -7 53 c-10 77 -43 138
-91 164 -50 28 -117 29 -167 3z m130 -66 c19 -13 52 -63 52 -79 0 -3 -47 -5
-105 -5 -71 0 -105 4 -105 11 0 6 17 29 39 50 43 43 80 50 119 23z"/>
<path d="M23100 4175 c0 -3 41 -105 91 -227 l91 -222 -29 -65 -29 -66 -52 1
c-48 2 -52 0 -52 -21 0 -48 9 -55 69 -55 50 0 61 4 83 28 36 38 37 41 142 324
52 139 99 266 105 281 l11 28 -47 -3 -47 -3 -47 -130 c-26 -71 -51 -147 -54
-167 -7 -38 -25 -53 -25 -20 0 9 -27 85 -59 167 l-58 150 -46 3 c-26 2 -47 0
-47 -3z"/>
<path d="M26402 3974 l3 -206 29 -25 c27 -23 36 -25 97 -21 44 4 80 13 103 26
35 21 36 21 36 2 0 -17 7 -20 45 -20 l45 0 0 225 0 225 -44 0 -45 0 -3 -171
-3 -171 -28 -24 c-21 -18 -40 -24 -76 -24 -26 0 -52 5 -59 12 -8 8 -12 66 -12
195 l0 183 -46 0 -45 0 3 -206z"/>
<path d="M15181 4057 c-50 -19 -111 -75 -132 -121 -85 -188 137 -373 332 -275
151 76 159 289 13 375 -54 32 -158 42 -213 21z m167 -91 c106 -55 105 -178 -1
-226 -106 -49 -224 -2 -243 95 -8 46 21 102 66 127 42 22 139 24 178 4z"/>
<path d="M14862 3953 c-84 -61 -92 -69 -92 -100 0 -30 8 -39 88 -98 48 -35 90
-65 95 -65 4 0 7 15 7 33 0 29 -8 39 -60 78 -32 24 -59 47 -60 50 0 3 27 27
60 53 53 41 60 52 60 82 0 19 -1 34 -3 34 -2 0 -44 -30 -95 -67z"/>
<path d="M15402 3583 c-13 -3 -22 -8 -20 -11 47 -86 56 -146 33 -196 -46 -96
-223 -104 -289 -13 -26 36 -27 118 -2 166 20 37 12 51 -31 51 -31 0 -54 -49
-61 -127 -9 -118 61 -210 179 -235 111 -23 219 22 267 112 19 37 23 56 20 110
-4 70 -33 144 -58 146 -8 1 -25 -1 -38 -3z"/>
<path d="M28596 3512 c-51 -64 -93 -148 -118 -241 -30 -112 -30 -353 1 -466
26 -98 60 -170 112 -235 36 -45 43 -50 80 -50 l40 0 -34 43 c-86 105 -126 235
-134 427 -9 218 31 387 121 508 20 28 36 52 36 56 0 3 -15 6 -32 6 -27 0 -40
-9 -72 -48z"/>
<path d="M29460 3554 c0 -4 14 -22 30 -41 95 -108 150 -325 136 -540 -11 -172
-54 -305 -132 -407 l-35 -46 39 0 c36 0 43 5 81 53 99 130 136 272 128 501 -7
211 -44 329 -138 439 -34 39 -46 47 -75 47 -19 0 -34 -3 -34 -6z"/>
<path d="M22612 3505 c-138 -43 -211 -171 -212 -367 0 -258 112 -381 350 -382
167 0 271 62 321 189 20 52 23 78 23 190 0 112 -3 138 -23 190 -31 80 -106
154 -180 178 -65 21 -216 22 -279 2z m245 -103 c17 -12 42 -43 55 -70 21 -42
23 -60 23 -187 0 -133 -1 -143 -28 -197 -36 -74 -78 -101 -157 -101 -80 0
-124 29 -159 102 -24 52 -26 66 -26 196 0 129 2 144 25 190 14 28 40 60 60 73
30 20 45 23 105 20 53 -2 78 -9 102 -26z"/>
<path d="M20895 3413 c-35 -49 -65 -91 -65 -95 0 -5 15 -8 33 -8 29 0 39 8 78
60 24 32 47 59 50 60 3 0 27 -27 53 -60 42 -53 51 -60 82 -60 41 0 43 -6 -40
108 -54 74 -62 82 -93 82 -30 0 -39 -8 -98 -87z"/>
<path d="M21785 3408 l-65 -93 36 -3 c23 -2 40 2 47 12 7 8 40 51 75 95 l63
81 -45 0 -45 0 -66 -92z"/>
<path d="M25245 3408 l-65 -93 36 -3 c23 -2 40 2 47 12 7 8 40 51 75 95 l63
81 -45 0 -45 0 -66 -92z"/>
<path d="M27720 3405 l0 -45 45 0 45 0 0 45 0 45 -45 0 -45 0 0 -45z"/>
<path d="M21330 3290 l0 -60 -45 0 c-45 0 -45 0 -45 -35 0 -34 1 -35 39 -35
l39 0 4 -164 c3 -149 5 -167 24 -193 20 -26 27 -28 85 -27 83 1 128 23 121 59
-6 34 -16 38 -51 20 -40 -20 -68 -19 -81 4 -5 11 -10 83 -10 160 l0 141 65 0
65 0 0 35 0 35 -65 0 -65 0 0 60 0 60 -40 0 -40 0 0 -60z"/>
<path d="M20464 3215 c-63 -31 -100 -82 -116 -156 -23 -111 22 -219 112 -267
37 -19 56 -23 110 -20 38 2 82 12 105 23 36 18 40 23 37 54 -1 19 -4 36 -5 38
-2 1 -22 -7 -45 -18 -129 -64 -232 -5 -232 133 0 62 23 113 63 142 36 26 118
27 166 2 37 -20 51 -12 51 31 0 32 -51 55 -130 60 -55 4 -73 1 -116 -22z"/>
<path d="M20899 3217 c-144 -76 -168 -287 -45 -394 133 -118 334 -31 353 151
19 185 -156 323 -308 243z m150 -65 c48 -26 71 -74 71 -145 0 -91 -45 -155
-117 -163 -84 -11 -151 77 -140 185 7 63 29 99 78 123 43 23 66 23 108 0z"/>
<path d="M21728 3220 c-46 -25 -92 -80 -107 -129 -27 -92 0 -212 60 -268 61
-55 164 -69 250 -32 47 20 49 23 49 60 0 22 -2 39 -5 39 -2 0 -23 -10 -46 -22
-95 -49 -182 -28 -219 55 -36 79 -40 77 131 77 l152 0 -7 53 c-10 77 -43 138
-91 164 -50 28 -117 29 -167 3z m130 -66 c19 -13 52 -63 52 -79 0 -3 -47 -5
-105 -5 -71 0 -105 4 -105 11 0 6 17 29 39 50 43 43 80 50 119 23z"/>
<path d="M23417 3229 c-21 -5 -51 -16 -67 -24 -29 -15 -30 -14 -30 5 0 17 -6
20 -45 20 l-45 0 0 -330 0 -330 45 0 45 0 0 120 0 120 42 -21 c57 -29 133 -23
181 14 126 96 107 366 -30 423 -36 16 -42 16 -96 3z m52 -84 c37 -19 71 -89
71 -146 0 -117 -121 -202 -194 -134 -25 23 -26 27 -26 140 l0 115 33 20 c38
24 78 25 116 5z"/>
<path d="M23917 3229 c-21 -5 -51 -16 -67 -24 -29 -15 -30 -14 -30 5 0 17 -6
20 -45 20 l-45 0 0 -330 0 -330 45 0 45 0 0 120 0 120 42 -21 c57 -29 133 -23
181 14 126 96 107 366 -30 423 -36 16 -42 16 -96 3z m52 -84 c37 -19 71 -89
71 -146 0 -117 -121 -202 -194 -134 -25 23 -26 27 -26 140 l0 115 33 20 c38
24 78 25 116 5z"/>
<path d="M24329 3217 c-144 -76 -168 -287 -45 -394 133 -118 334 -31 353 151
19 185 -156 323 -308 243z m150 -65 c48 -26 71 -74 71 -145 0 -91 -45 -155
-117 -163 -84 -11 -151 77 -140 185 7 63 29 99 78 123 43 23 66 23 108 0z"/>
<path d="M24784 3230 c-50 -16 -77 -53 -82 -115 -4 -52 -3 -56 30 -89 24 -24
53 -39 94 -50 94 -26 109 -36 109 -76 0 -26 -6 -37 -25 -48 -33 -17 -111 -9
-163 17 -23 11 -42 19 -43 18 0 -1 -4 -18 -7 -38 -5 -34 -3 -37 31 -54 47 -22
158 -31 204 -16 57 19 81 52 86 121 4 59 4 61 -34 99 -31 31 -51 41 -99 51
-75 15 -105 33 -105 65 0 52 74 69 164 39 26 -9 48 -15 50 -13 2 2 6 18 9 35
5 27 2 33 -21 44 -34 16 -158 22 -198 10z"/>
<path d="M25188 3220 c-46 -25 -92 -80 -107 -129 -27 -92 0 -212 60 -268 61
-55 164 -69 250 -32 47 20 49 23 49 60 0 22 -2 39 -5 39 -2 0 -23 -10 -46 -22
-95 -49 -182 -28 -219 55 -36 79 -40 77 131 77 l152 0 -7 53 c-10 77 -43 138
-91 164 -50 28 -117 29 -167 3z m130 -66 c19 -13 52 -63 52 -79 0 -3 -47 -5
-105 -5 -71 0 -105 4 -105 11 0 6 17 29 39 50 43 43 80 50 119 23z"/>
<path d="M27394 3230 c-50 -16 -77 -53 -82 -115 -4 -52 -3 -56 30 -89 24 -24
53 -39 94 -50 94 -26 109 -36 109 -76 0 -26 -6 -37 -25 -48 -33 -17 -111 -9
-163 17 -23 11 -42 19 -43 18 0 -1 -4 -18 -7 -38 -5 -34 -3 -37 31 -54 47 -22
158 -31 204 -16 57 19 81 52 86 121 4 59 4 61 -34 99 -31 31 -51 41 -99 51
-75 15 -105 33 -105 65 0 52 74 69 164 39 26 -9 48 -15 50 -13 2 2 6 18 9 35
5 27 2 33 -21 44 -34 16 -158 22 -198 10z"/>
<path d="M28120 3228 c-19 -5 -42 -16 -51 -24 -21 -19 -29 -18 -29 6 0 17 -7
20 -45 20 l-45 0 0 -225 0 -225 45 0 45 0 0 145 c0 193 18 237 97 237 28 0 43
-7 60 -27 22 -25 23 -34 23 -191 l0 -164 46 0 46 0 -4 183 c-4 191 -11 224
-52 251 -30 19 -95 26 -136 14z"/>
<path d="M29008 3230 c-153 -46 -254 -251 -188 -381 33 -63 70 -81 161 -76 64
3 86 9 135 37 34 19 60 28 62 22 2 -6 12 -22 23 -36 40 -50 149 -23 149 37 0
25 -24 21 -35 -5 -15 -34 -53 -36 -65 -3 -18 49 -11 83 29 143 67 97 111 222
79 222 -9 0 -20 -18 -27 -42 -7 -24 -29 -74 -49 -113 l-37 -70 -5 75 c-7 99
-32 148 -90 178 -45 22 -94 27 -142 12z m103 -30 c40 -22 53 -67 53 -200 l1
-125 -54 -32 c-140 -84 -237 -54 -234 71 2 66 35 172 68 216 47 64 119 94 166
70z"/>
<path d="M27720 3005 l0 -225 45 0 45 0 0 225 0 225 -45 0 -45 0 0 -225z"/>
<path d="M17466 2812 c-51 -64 -93 -148 -118 -241 -30 -112 -30 -353 1 -466
26 -98 60 -170 112 -235 36 -45 43 -50 80 -50 l40 0 -34 43 c-86 105 -126 235
-134 427 -9 218 31 387 121 508 20 28 36 52 36 56 0 3 -15 6 -32 6 -27 0 -40
-9 -72 -48z"/>
<path d="M18330 2854 c0 -4 14 -22 30 -41 95 -108 150 -325 136 -540 -11 -172
-54 -305 -132 -407 l-35 -46 39 0 c36 0 43 5 81 53 99 130 136 272 128 501 -7
211 -44 329 -138 439 -34 39 -46 47 -75 47 -19 0 -34 -3 -34 -6z"/>
<path d="M15972 2678 c-7 -7 -12 -35 -12 -63 0 -49 -1 -51 -32 -60 -28 -8 -33
-15 -33 -40 0 -24 5 -31 33 -39 l32 -9 0 -161 c0 -184 10 -217 72 -234 43 -12
137 1 185 25 32 15 38 23 36 47 -3 42 -16 50 -49 33 -52 -26 -71 -29 -88 -12
-13 14 -16 42 -16 161 l0 144 44 0 c65 0 96 14 96 44 0 33 -26 46 -89 46 l-51
0 0 53 c0 29 -5 58 -12 65 -16 16 -100 16 -116 0z"/>
<path d="M16418 2524 c-56 -17 -62 -25 -54 -68 l6 -33 47 23 c65 33 125 32
152 -2 21 -27 38 -90 27 -101 -3 -4 -36 -10 -71 -14 -75 -9 -142 -36 -173 -70
-42 -44 -19 -149 39 -180 29 -15 135 -7 177 15 28 14 32 15 32 1 0 -11 11 -15
40 -15 l40 0 0 171 c0 158 -2 174 -22 210 -40 71 -133 96 -240 63z m182 -279
c0 -70 -35 -105 -104 -105 -42 0 -88 35 -84 63 4 28 57 58 121 67 29 4 55 8
60 9 4 0 7 -15 7 -34z"/>
<path d="M16990 2528 c-19 -5 -42 -16 -51 -24 -21 -19 -29 -18 -29 6 0 17 -7
20 -45 20 l-45 0 0 -225 0 -225 45 0 45 0 0 145 c0 193 18 237 97 237 28 0 43
-7 60 -27 22 -25 23 -34 23 -191 l0 -164 46 0 46 0 -4 183 c-4 191 -11 224
-52 251 -30 19 -95 26 -136 14z"/>
<path d="M17878 2530 c-153 -46 -254 -251 -188 -381 33 -63 70 -81 161 -76 64
3 86 9 135 37 34 19 60 28 62 22 2 -6 12 -22 23 -36 40 -50 149 -23 149 37 0
25 -24 21 -35 -5 -15 -34 -53 -36 -65 -3 -18 49 -11 83 29 143 67 97 111 222
79 222 -9 0 -20 -18 -27 -42 -7 -24 -29 -74 -49 -113 l-37 -70 -5 75 c-7 99
-32 148 -90 178 -45 22 -94 27 -142 12z m103 -30 c40 -22 53 -67 53 -200 l1
-125 -54 -32 c-140 -84 -237 -54 -234 71 2 66 35 172 68 216 47 64 119 94 166
70z"/>
<path d="M18990 2430 c0 -20 7 -20 325 -20 318 0 325 0 325 20 0 20 -7 20
-325 20 -318 0 -325 0 -325 -20z"/>
<path d="M26140 2430 c0 -20 7 -20 325 -20 318 0 325 0 325 20 0 20 -7 20
-325 20 -318 0 -325 0 -325 -20z"/>
<path d="M20030 2335 l0 -25 2865 0 2865 0 0 25 0 25 -2865 0 -2865 0 0 -25z"/>
<path d="M27180 2335 l0 -25 1355 0 1355 0 0 25 0 25 -1355 0 -1355 0 0 -25z"/>
<path d="M18993 2254 c-3 -9 0 -20 8 -25 8 -5 154 -8 324 -6 303 2 310 2 310
22 0 20 -8 20 -318 23 -285 2 -318 1 -324 -14z"/>
<path d="M26143 2254 c-3 -9 0 -20 8 -25 8 -5 154 -8 324 -6 303 2 310 2 310
22 0 20 -8 20 -318 23 -285 2 -318 1 -324 -14z"/>
<path d="M28696 2102 c-51 -64 -93 -148 -118 -241 -30 -112 -30 -353 1 -466
26 -98 60 -170 112 -235 36 -45 43 -50 80 -50 l40 0 -34 43 c-86 105 -126 235
-134 427 -9 218 31 387 121 508 20 28 36 52 36 56 0 3 -15 6 -32 6 -27 0 -40
-9 -72 -48z"/>
<path d="M29550 2144 c0 -4 14 -22 30 -41 95 -108 150 -325 136 -540 -11 -172
-54 -305 -132 -407 l-35 -46 39 0 c36 0 43 5 81 53 99 130 136 272 128 501 -7
211 -44 329 -138 439 -34 39 -46 47 -75 47 -19 0 -34 -3 -34 -6z"/>
<path d="M20615 2003 c-35 -49 -65 -91 -65 -95 0 -5 15 -8 33 -8 29 0 39 8 78
60 24 32 47 59 50 60 3 0 27 -27 53 -60 42 -53 51 -60 82 -60 41 0 43 -6 -40
108 -54 74 -62 82 -93 82 -30 0 -39 -8 -98 -87z"/>
<path d="M21505 1998 l-65 -93 36 -3 c23 -2 40 2 47 12 7 8 40 51 75 95 l63
81 -45 0 -45 0 -66 -92z"/>
<path d="M22336 2068 c-25 -40 -239 -667 -232 -683 4 -13 19 -15 68 -13 l63 3
22 55 c12 30 24 63 26 73 5 15 20 17 145 17 l141 0 20 -57 c33 -90 30 -88 108
-91 56 -2 72 0 76 12 4 9 -45 163 -108 343 -63 179 -115 328 -115 329 0 1 -7
10 -16 18 -12 12 -36 16 -99 16 -77 0 -86 -2 -99 -22z m148 -296 c25 -74 46
-138 46 -143 0 -5 -45 -9 -100 -9 -55 0 -100 3 -100 7 0 22 95 291 101 285 4
-4 28 -67 53 -140z"/>
<path d="M23150 1935 l0 -155 -22 14 c-13 8 -44 20 -71 27 -128 32 -230 -92
-214 -261 6 -71 45 -146 90 -177 45 -31 109 -30 170 1 44 22 47 22 47 5 0 -16
8 -19 45 -19 l45 0 0 360 0 360 -45 0 -45 0 0 -155z m-30 -204 c23 -17 25 -24
28 -117 4 -123 -1 -140 -41 -164 -41 -25 -73 -25 -115 0 -41 25 -62 73 -62
140 0 84 34 141 96 160 35 10 60 5 94 -19z"/>
<path d="M23400 1995 l0 -45 45 0 45 0 0 45 0 45 -45 0 -45 0 0 -45z"/>
<path d="M21050 1880 l0 -60 -45 0 c-45 0 -45 0 -45 -35 0 -34 1 -35 39 -35
l39 0 4 -164 c3 -149 5 -167 24 -193 20 -26 27 -28 85 -27 83 1 128 23 121 59
-6 34 -16 38 -51 20 -40 -20 -68 -19 -81 4 -5 11 -10 83 -10 160 l0 141 65 0
65 0 0 35 0 35 -65 0 -65 0 0 60 0 60 -40 0 -40 0 0 -60z"/>
<path d="M25500 1880 l0 -60 -45 0 c-45 0 -45 0 -45 -35 0 -34 1 -35 39 -35
l39 0 4 -164 c3 -149 5 -167 24 -193 20 -26 27 -28 85 -27 83 1 128 23 121 59
-6 34 -16 38 -51 20 -40 -20 -68 -19 -81 4 -5 11 -10 83 -10 160 l0 141 65 0
65 0 0 35 0 35 -65 0 -65 0 0 60 0 60 -40 0 -40 0 0 -60z"/>
<path d="M20184 1805 c-63 -31 -100 -82 -116 -156 -23 -111 22 -219 112 -267
37 -19 56 -23 110 -20 38 2 82 12 105 23 36 18 40 23 37 54 -1 19 -4 36 -5 38
-2 1 -22 -7 -45 -18 -129 -64 -232 -5 -232 133 0 62 23 113 63 142 36 26 118
27 166 2 37 -20 51 -12 51 31 0 32 -51 55 -130 60 -55 4 -73 1 -116 -22z"/>
<path d="M20619 1807 c-144 -76 -168 -287 -45 -394 133 -118 334 -31 353 151
19 185 -156 323 -308 243z m150 -65 c48 -26 71 -74 71 -145 0 -91 -45 -155
-117 -163 -84 -11 -151 77 -140 185 7 63 29 99 78 123 43 23 66 23 108 0z"/>
<path d="M21448 1810 c-46 -25 -92 -80 -107 -129 -27 -92 0 -212 60 -268 61
-55 164 -69 250 -32 47 20 49 23 49 60 0 22 -2 39 -5 39 -2 0 -23 -10 -46 -22
-95 -49 -182 -28 -219 55 -36 79 -40 77 131 77 l152 0 -7 53 c-10 77 -43 138
-91 164 -50 28 -117 29 -167 3z m130 -66 c19 -13 52 -63 52 -79 0 -3 -47 -5
-105 -5 -71 0 -105 4 -105 11 0 6 17 29 39 50 43 43 80 50 119 23z"/>
<path d="M23708 1814 c-56 -17 -62 -25 -54 -68 l6 -33 47 23 c65 33 125 32
152 -2 21 -27 38 -90 27 -101 -3 -4 -36 -10 -71 -14 -75 -9 -142 -36 -173 -70
-42 -44 -19 -149 39 -180 29 -15 135 -7 177 15 28 14 32 15 32 1 0 -11 11 -15
40 -15 l40 0 0 171 c0 158 -2 174 -22 210 -40 71 -133 96 -240 63z m182 -279
c0 -70 -35 -105 -104 -105 -42 0 -88 35 -84 63 4 28 57 58 121 67 29 4 55 8
60 9 4 0 7 -15 7 -34z"/>
<path d="M24194 1805 c-63 -31 -100 -82 -116 -156 -23 -111 22 -219 112 -267
37 -19 56 -23 110 -20 38 2 82 12 105 23 36 18 40 23 37 54 -1 19 -4 36 -5 38
-2 1 -22 -7 -45 -18 -129 -64 -232 -5 -232 133 0 62 23 113 63 142 36 26 118
27 166 2 37 -20 51 -12 51 31 0 32 -51 55 -130 60 -55 4 -73 1 -116 -22z"/>
<path d="M24618 1810 c-46 -25 -92 -80 -107 -129 -27 -92 0 -212 60 -268 61
-55 164 -69 250 -32 47 20 49 23 49 60 0 22 -2 39 -5 39 -2 0 -23 -10 -46 -22
-95 -49 -182 -28 -219 55 -36 79 -40 77 131 77 l152 0 -7 53 c-10 77 -43 138
-91 164 -50 28 -117 29 -167 3z m130 -66 c19 -13 52 -63 52 -79 0 -3 -47 -5
-105 -5 -71 0 -105 4 -105 11 0 6 17 29 39 50 43 43 80 50 119 23z"/>
<path d="M25140 1818 c-19 -5 -42 -16 -51 -24 -21 -19 -29 -18 -29 6 0 17 -7
20 -45 20 l-45 0 0 -225 0 -225 45 0 45 0 0 145 c0 193 18 237 97 237 28 0 43
-7 60 -27 22 -25 23 -34 23 -191 l0 -164 46 0 46 0 -4 183 c-4 191 -11 224
-52 251 -30 19 -95 26 -136 14z"/>
<path d="M27334 1805 c-63 -31 -100 -82 -116 -156 -23 -111 22 -219 112 -267
37 -19 56 -23 110 -20 38 2 82 12 105 23 36 18 40 23 37 54 -1 19 -4 36 -5 38
-2 1 -22 -7 -45 -18 -129 -64 -232 -5 -232 133 0 62 23 113 63 142 36 26 118
27 166 2 37 -20 51 -12 51 31 0 32 -51 55 -130 60 -55 4 -73 1 -116 -22z"/>
<path d="M27759 1807 c-144 -76 -168 -287 -45 -394 133 -118 334 -31 353 151
19 185 -156 323 -308 243z m150 -65 c48 -26 71 -74 71 -145 0 -91 -45 -155
-117 -163 -84 -11 -151 77 -140 185 7 63 29 99 78 123 43 23 66 23 108 0z"/>
<path d="M28214 1820 c-50 -16 -77 -53 -82 -115 -4 -52 -3 -56 30 -89 24 -24
53 -39 94 -50 94 -26 109 -36 109 -76 0 -26 -6 -37 -25 -48 -33 -17 -111 -9
-163 17 -23 11 -42 19 -43 18 0 -1 -4 -18 -7 -38 -5 -34 -3 -37 31 -54 47 -22
158 -31 204 -16 57 19 81 52 86 121 4 59 4 61 -34 99 -31 31 -51 41 -99 51
-75 15 -105 33 -105 65 0 52 74 69 164 39 26 -9 48 -15 50 -13 2 2 6 18 9 35
5 27 2 33 -21 44 -34 16 -158 22 -198 10z"/>
<path d="M29098 1820 c-153 -46 -254 -251 -188 -381 33 -63 70 -81 161 -76 64
3 86 9 135 37 34 19 60 28 62 22 2 -6 12 -22 23 -36 40 -50 149 -23 149 37 0
25 -24 21 -35 -5 -15 -34 -53 -36 -65 -3 -18 49 -11 83 29 143 67 97 111 222
79 222 -9 0 -20 -18 -27 -42 -7 -24 -29 -74 -49 -113 l-37 -70 -5 75 c-7 99
-32 148 -90 178 -45 22 -94 27 -142 12z m103 -30 c40 -22 53 -67 53 -200 l1
-125 -54 -32 c-140 -84 -237 -54 -234 71 2 66 35 172 68 216 47 64 119 94 166
70z"/>
<path d="M23410 1545 c0 -262 -1 -276 -20 -295 -24 -24 -54 -25 -94 -5 -34 18
-34 18 -42 -23 -6 -29 -4 -33 29 -47 46 -19 110 -19 146 0 57 29 61 54 61 364
l0 281 -40 0 -40 0 0 -275z"/>
<path d="M5405 1273 c-35 -49 -65 -91 -65 -95 0 -5 15 -8 33 -8 29 0 39 8 78
60 24 32 47 59 50 60 3 0 27 -27 53 -60 42 -53 51 -60 82 -60 41 0 43 -6 -40
108 -54 74 -62 82 -93 82 -30 0 -39 -8 -98 -87z"/>
<path d="M6305 1268 l-65 -93 36 -3 c23 -2 40 2 47 12 7 8 40 51 75 95 l63 81
-45 0 -45 0 -66 -92z"/>
<path d="M7660 1205 l0 -155 -22 14 c-13 8 -44 20 -71 27 -128 32 -230 -92
-214 -261 6 -71 45 -146 90 -177 45 -31 109 -30 170 1 44 22 47 22 47 5 0 -16
8 -19 45 -19 l45 0 0 360 0 360 -45 0 -45 0 0 -155z m-30 -204 c23 -17 25 -24
28 -117 4 -123 -1 -140 -41 -164 -41 -25 -73 -25 -115 0 -41 25 -62 73 -62
140 0 84 34 141 96 160 35 10 60 5 94 -19z"/>
<path d="M7910 1265 l0 -45 45 0 45 0 0 45 0 45 -45 0 -45 0 0 -45z"/>
<path d="M5850 1150 l0 -60 -45 0 c-45 0 -45 0 -45 -35 0 -34 1 -35 39 -35
l39 0 4 -164 c3 -149 5 -167 24 -193 20 -26 27 -28 85 -27 83 1 128 23 121 59
-6 34 -16 38 -51 20 -40 -20 -68 -19 -81 4 -5 11 -10 83 -10 160 l0 141 65 0
65 0 0 35 0 35 -65 0 -65 0 0 60 0 60 -40 0 -40 0 0 -60z"/>
<path d="M10010 1150 l0 -60 -45 0 c-45 0 -45 0 -45 -35 0 -34 1 -35 39 -35
l39 0 4 -164 c3 -149 5 -167 24 -193 20 -26 27 -28 85 -27 83 1 128 23 121 59
-6 34 -16 38 -51 20 -40 -20 -68 -19 -81 4 -5 11 -10 83 -10 160 l0 141 65 0
65 0 0 35 0 35 -65 0 -65 0 0 60 0 60 -40 0 -40 0 0 -60z"/>
<path d="M4984 1075 c-63 -31 -100 -82 -116 -156 -23 -111 22 -219 112 -267
37 -19 56 -23 110 -20 38 2 82 12 105 23 36 18 40 23 37 54 -1 19 -4 36 -5 38
-2 1 -22 -7 -45 -18 -129 -64 -232 -5 -232 133 0 62 23 113 63 142 36 26 118
27 166 2 37 -20 51 -12 51 31 0 32 -51 55 -130 60 -55 4 -73 1 -116 -22z"/>
<path d="M5409 1077 c-144 -76 -168 -287 -45 -394 133 -118 334 -31 353 151
19 185 -156 323 -308 243z m150 -65 c48 -26 71 -74 71 -145 0 -91 -45 -155
-117 -163 -84 -11 -151 77 -140 185 7 63 29 99 78 123 43 23 66 23 108 0z"/>
<path d="M6248 1080 c-46 -25 -92 -80 -107 -129 -27 -92 0 -212 60 -268 61
-55 164 -69 250 -32 47 20 49 23 49 60 0 22 -2 39 -5 39 -2 0 -23 -10 -46 -22
-95 -49 -182 -28 -219 55 -36 79 -40 77 131 77 l152 0 -7 53 c-10 77 -43 138
-91 164 -50 28 -117 29 -167 3z m130 -66 c19 -13 52 -63 52 -79 0 -3 -47 -5
-105 -5 -71 0 -105 4 -105 11 0 6 17 29 39 50 43 43 80 50 119 23z"/>
<path d="M6988 1084 c-56 -17 -62 -25 -54 -68 l6 -33 47 23 c65 33 125 32 152
-2 21 -27 38 -90 27 -101 -3 -4 -36 -10 -71 -14 -75 -9 -142 -36 -173 -70 -42
-44 -19 -149 39 -180 29 -15 135 -7 177 15 28 14 32 15 32 1 0 -11 11 -15 40
-15 l40 0 0 171 c0 158 -2 174 -22 210 -40 71 -133 96 -240 63z m182 -279 c0
-70 -35 -105 -104 -105 -42 0 -88 35 -84 63 4 28 57 58 121 67 29 4 55 8 60 9
4 0 7 -15 7 -34z"/>
<path d="M8218 1084 c-56 -17 -62 -25 -54 -68 l6 -33 47 23 c65 33 125 32 152
-2 21 -27 38 -90 27 -101 -3 -4 -36 -10 -71 -14 -75 -9 -142 -36 -173 -70 -42
-44 -19 -149 39 -180 29 -15 135 -7 177 15 28 14 32 15 32 1 0 -11 11 -15 40
-15 l40 0 0 171 c0 158 -2 174 -22 210 -40 71 -133 96 -240 63z m182 -279 c0
-70 -35 -105 -104 -105 -42 0 -88 35 -84 63 4 28 57 58 121 67 29 4 55 8 60 9
4 0 7 -15 7 -34z"/>
<path d="M8694 1075 c-63 -31 -100 -82 -116 -156 -23 -111 22 -219 112 -267
37 -19 56 -23 110 -20 38 2 82 12 105 23 36 18 40 23 37 54 -1 19 -4 36 -5 38
-2 1 -22 -7 -45 -18 -129 -64 -232 -5 -232 133 0 62 23 113 63 142 36 26 118
27 166 2 37 -20 51 -12 51 31 0 32 -51 55 -130 60 -55 4 -73 1 -116 -22z"/>
<path d="M9118 1080 c-46 -25 -92 -80 -107 -129 -27 -92 0 -212 60 -268 61
-55 164 -69 250 -32 47 20 49 23 49 60 0 22 -2 39 -5 39 -2 0 -23 -10 -46 -22
-95 -49 -182 -28 -219 55 -36 79 -40 77 131 77 l152 0 -7 53 c-10 77 -43 138
-91 164 -50 28 -117 29 -167 3z m130 -66 c19 -13 52 -63 52 -79 0 -3 -47 -5
-105 -5 -71 0 -105 4 -105 11 0 6 17 29 39 50 43 43 80 50 119 23z"/>
<path d="M9650 1088 c-19 -5 -42 -16 -51 -24 -21 -19 -29 -18 -29 6 0 17 -7
20 -45 20 l-45 0 0 -225 0 -225 45 0 45 0 0 145 c0 193 18 237 97 237 28 0 43
-7 60 -27 22 -25 23 -34 23 -191 l0 -164 46 0 46 0 -4 183 c-4 191 -11 224
-52 251 -30 19 -95 26 -136 14z"/>
<path d="M7920 815 c0 -262 -1 -276 -20 -295 -24 -24 -54 -25 -94 -5 -34 18
-34 18 -42 -23 -6 -29 -4 -33 29 -47 46 -19 110 -19 146 0 57 29 61 54 61 364
l0 281 -40 0 -40 0 0 -275z"/>
</g>
</svg>
